<svg width="130" height="30" viewBox="0 0 130 30" fill="none" xmlns="http://www.w3.org/2000/svg">
<path d="M0 0C0 0 14.0182 0 21.1765 0C28.3347 0 30 7.8 30 7.8C30 7.8 21.7648 7.8 8.52941 7.8C1.17647 7.2 0 0 0 0Z" fill="#0074E4"/>
<path d="M30 10.8C30 10.8 15.9818 10.8 8.82353 10.8C1.66528 10.8 2.24394e-06 18.6 2.24394e-06 18.6C2.24394e-06 18.6 8.23516 18.6 21.4706 18.6C28.8235 18 30 10.8 30 10.8Z" fill="#0074E4"/>
<path d="M12.9412 22.2C12.9412 22.2 17.1061 22.2 21.1765 22.2C29.4118 22.2 30 30 30 30C30 30 28.7025 30 21.1765 30C13.8235 29.4 12.9412 22.2 12.9412 22.2Z" fill="#0074E4"/>
<path d="M42.6023 23V5.56375H49.671C50.9591 5.56375 52.0587 5.79152 52.9698 6.24706C53.8965 6.7026 54.6034 7.33094 55.0904 8.13206C55.593 8.93319 55.8444 9.85998 55.8444 10.9124C55.8444 12.0591 55.5538 13.0645 54.9726 13.9284C54.3914 14.7767 53.5667 15.3972 52.4985 15.7899L56.2921 23H52.2629L48.7992 16.2847H46.2309V23H42.6023ZM49.6239 8.69756H46.2309V13.3158H49.6239C50.425 13.3158 51.0533 13.0959 51.5089 12.6561C51.9644 12.2162 52.1922 11.6743 52.1922 11.0302C52.1922 10.3705 51.9644 9.82071 51.5089 9.38087C51.0533 8.92533 50.425 8.69756 49.6239 8.69756ZM61.0105 23.2356C60.1308 23.2356 59.4003 23.0471 58.8191 22.6701C58.2536 22.2931 57.8295 21.7905 57.5468 21.1621C57.264 20.5181 57.1226 19.7955 57.1226 18.9944V10.5119H60.6806V18.2875C60.6806 18.8844 60.8377 19.3714 61.1518 19.7484C61.466 20.1097 61.9294 20.2903 62.542 20.2903C63.0604 20.2903 63.4688 20.1646 63.7673 19.9133C64.0814 19.662 64.3092 19.34 64.4506 18.9472C64.592 18.5545 64.6626 18.1383 64.6626 17.6984V10.5119H68.2441V23H64.6626V21.2328H64.5213C64.2542 21.7198 63.838 22.1753 63.2725 22.5994C62.7227 23.0236 61.9687 23.2356 61.0105 23.2356ZM75.5224 23.2356C74.4856 23.2356 73.6295 23.0943 72.9541 22.8115C72.2786 22.5287 71.7367 22.1832 71.3283 21.7747C70.9355 21.3506 70.6371 20.9344 70.4329 20.5259C70.2444 20.1018 70.1187 19.7484 70.0559 19.4656C70.0088 19.1829 69.9852 19.0415 69.9852 19.0415H73.3075C73.3075 19.0415 73.3311 19.12 73.3782 19.2771C73.4253 19.4342 73.5274 19.6149 73.6845 19.8191C73.8573 20.0233 74.1008 20.2039 74.4149 20.361C74.7291 20.5181 75.1532 20.5966 75.6873 20.5966C76.3471 20.5966 76.7948 20.4631 77.0304 20.1961C77.2817 19.929 77.4074 19.662 77.4074 19.3949C77.4074 18.8294 76.944 18.4524 76.0172 18.2639L74.3207 17.9341C73.5981 17.7927 72.9148 17.5885 72.2708 17.3214C71.6424 17.0387 71.1319 16.6538 70.7392 16.1669C70.3622 15.6642 70.1737 15.0202 70.1737 14.2347C70.1737 13.4807 70.37 12.8053 70.7628 12.2084C71.1555 11.6115 71.7131 11.1402 72.4357 10.7946C73.174 10.449 74.0536 10.2762 75.0747 10.2762C76.0329 10.2762 76.8262 10.4098 77.4545 10.6768C78.0985 10.9281 78.6091 11.2502 78.9861 11.6429C79.3631 12.0199 79.6458 12.4047 79.8343 12.7974C80.0228 13.1744 80.1406 13.4965 80.1878 13.7635C80.2506 14.0148 80.282 14.1405 80.282 14.1405H77.0775C77.0775 14.1405 77.0304 14.0384 76.9361 13.8342C76.8419 13.6143 76.6455 13.4022 76.3471 13.198C76.0643 12.9781 75.6245 12.8681 75.0276 12.8681C74.4149 12.8681 73.9908 12.9938 73.7552 13.2451C73.5196 13.4807 73.4018 13.7321 73.4018 13.9991C73.4018 14.3133 73.5353 14.5489 73.8023 14.706C74.0851 14.8631 74.4464 14.9887 74.8862 15.083L76.512 15.4129C77.7058 15.6485 78.6876 16.0648 79.4573 16.6617C80.227 17.2429 80.6119 18.0911 80.6119 19.2064C80.6119 19.9604 80.4155 20.6437 80.0228 21.2564C79.6301 21.869 79.0568 22.356 78.3028 22.7172C77.5488 23.0628 76.622 23.2356 75.5224 23.2356ZM82.3143 23V5.0925H85.8958V12.3026H86.0136C86.155 12.0513 86.3592 11.7685 86.6262 11.4544C86.909 11.1402 87.2781 10.8653 87.7336 10.6297C88.2049 10.3941 88.8018 10.2762 89.5244 10.2762C90.4983 10.2762 91.2916 10.504 91.9042 10.9596C92.5168 11.3994 92.9645 11.9727 93.2473 12.6796C93.53 13.3708 93.6714 14.1012 93.6714 14.8709V23H90.0899V15.4836C90.0899 14.8866 89.925 14.3604 89.5951 13.9049C89.2809 13.4493 88.7704 13.2216 88.0635 13.2216C87.5294 13.2216 87.1053 13.3472 86.7911 13.5986C86.477 13.8499 86.2492 14.1719 86.1078 14.5646C85.9665 14.9573 85.8958 15.3736 85.8958 15.8134V23H82.3143ZM95.9428 23V5.56375H104.001C105.132 5.56375 106.083 5.7601 106.852 6.15281C107.638 6.54552 108.235 7.07175 108.643 7.7315C109.051 8.37554 109.256 9.09027 109.256 9.87569C109.256 10.6454 109.114 11.2894 108.831 11.8078C108.549 12.3105 108.203 12.7189 107.795 13.0331C107.402 13.3315 107.017 13.5357 106.64 13.6457V13.8342C107.064 13.9284 107.536 14.1326 108.054 14.4468C108.572 14.761 109.02 15.2087 109.397 15.7899C109.774 16.3711 109.962 17.1251 109.962 18.0519C109.962 18.8687 109.766 19.6541 109.373 20.4081C108.996 21.1621 108.376 21.7826 107.512 22.2696C106.664 22.7565 105.556 23 104.19 23H95.9428ZM103.389 8.60331H99.5714V12.6561H103.389C104.205 12.6561 104.802 12.4597 105.179 12.067C105.556 11.6743 105.745 11.1952 105.745 10.6297C105.745 10.0799 105.556 9.60865 105.179 9.21594C104.802 8.80752 104.205 8.60331 103.389 8.60331ZM103.671 15.4364H99.5714V19.9604H103.671C104.598 19.9604 105.266 19.7405 105.674 19.3007C106.098 18.8451 106.31 18.3032 106.31 17.6749C106.31 17.0622 106.098 16.536 105.674 16.0962C105.266 15.6564 104.598 15.4364 103.671 15.4364ZM113.826 8.81537C113.198 8.81537 112.687 8.61902 112.295 8.22631C111.902 7.81789 111.706 7.33879 111.706 6.789C111.706 6.20779 111.902 5.72083 112.295 5.32812C112.687 4.91971 113.198 4.7155 113.826 4.7155C114.423 4.7155 114.926 4.91971 115.334 5.32812C115.743 5.72083 115.947 6.20779 115.947 6.789C115.947 7.33879 115.743 7.81789 115.334 8.22631C114.926 8.61902 114.423 8.81537 113.826 8.81537ZM112.036 23V10.5119H115.617V23H112.036ZM118.207 23V5.0925H121.788V23H118.207ZM124.288 23V5.0925H127.869V23H124.288Z" fill="#0074E4"/>
</svg>
