<svg width="49" height="49" viewBox="0 0 49 49" fill="none" xmlns="http://www.w3.org/2000/svg">
<g clip-path="url(#clip0_4005_541)">
<rect width="49" height="49" rx="24.5" fill="white"/>
<path d="M5.57296 21.7625L7.21936 20.7695L8.86576 21.7756L8.43456 19.894L9.88496 18.6396L7.97722 18.4697L7.21936 16.6927L6.46149 18.4567L4.55376 18.6265L6.00416 19.894L5.57296 21.7625ZM4.77589 22.8591L5.424 20.0822L3.26904 18.2152L6.10765 17.9695L7.21936 15.3505L8.33107 17.969L11.1691 18.2147L9.0142 20.0816L9.66282 22.8586L7.21936 21.3846L4.77589 22.8591Z" fill="#BC9412"/>
<path d="M15.582 9.88598L13.6847 11.0317C13.629 11.0592 13.5772 11.0703 13.5295 11.0651C13.4821 11.0595 13.4359 11.0432 13.391 11.016C13.3457 10.9881 13.3115 10.9487 13.2885 10.8979C13.2656 10.847 13.2635 10.7914 13.2823 10.7311L13.7872 8.58298L12.1173 7.13519C12.0702 7.09686 12.0392 7.05104 12.0242 6.99773C12.0092 6.94442 12.0125 6.89337 12.0341 6.84459C12.0558 6.79581 12.0845 6.75573 12.1204 6.72437C12.1566 6.69406 12.2054 6.6735 12.2667 6.6627L14.4703 6.47036L15.3296 4.43614C15.3533 4.37865 15.3874 4.33718 15.432 4.31174C15.4766 4.28631 15.5266 4.27359 15.582 4.27359C15.6374 4.27359 15.6876 4.28631 15.7325 4.31174C15.7775 4.33718 15.8115 4.37865 15.8345 4.43614L16.6937 6.47036L18.8968 6.6627C18.9584 6.67315 19.0074 6.69389 19.0436 6.7249C19.0799 6.75556 19.1088 6.79546 19.1304 6.84459C19.1516 6.89337 19.1548 6.94442 19.1398 6.99773C19.1248 7.05104 19.0938 7.09686 19.0468 7.13519L17.3768 8.58298L17.8817 10.7311C17.9013 10.7907 17.8993 10.8461 17.876 10.8973C17.8526 10.9486 17.8183 10.9879 17.773 11.0155C17.7284 11.0433 17.6823 11.0599 17.6345 11.0651C17.5871 11.0703 17.5356 11.0592 17.4798 11.0317L15.582 9.88598Z" fill="#BC9412"/>
<path d="M32.3072 9.88598L30.41 11.0317C30.3542 11.0592 30.3025 11.0703 30.2547 11.0651C30.2073 11.0595 30.1612 11.0432 30.1162 11.016C30.0709 10.9881 30.0368 10.9487 30.0138 10.8979C29.9908 10.847 29.9887 10.7914 30.0075 10.7311L30.5124 8.58298L28.8425 7.13519C28.7954 7.09686 28.7644 7.05104 28.7494 6.99773C28.7345 6.94442 28.7378 6.89337 28.7594 6.84459C28.781 6.79581 28.8097 6.75573 28.8456 6.72437C28.8818 6.69406 28.9306 6.6735 28.992 6.6627L31.1955 6.47036L32.0548 4.43614C32.0785 4.37865 32.1126 4.33718 32.1572 4.31174C32.2018 4.28631 32.2518 4.27359 32.3072 4.27359C32.3626 4.27359 32.4128 4.28631 32.4578 4.31174C32.5027 4.33718 32.5367 4.37865 32.5597 4.43614L33.4189 6.47036L35.622 6.6627C35.6837 6.67315 35.7326 6.69389 35.7689 6.7249C35.8051 6.75556 35.834 6.79546 35.8556 6.84459C35.8769 6.89337 35.88 6.94442 35.865 6.99773C35.85 7.05104 35.819 7.09686 35.772 7.13519L34.1021 8.58298L34.607 10.7311C34.6265 10.7907 34.6246 10.8461 34.6012 10.8973C34.5779 10.9486 34.5435 10.9879 34.4982 11.0155C34.4536 11.0433 34.4075 11.0599 34.3597 11.0651C34.3124 11.0703 34.2608 11.0592 34.205 11.0317L32.3072 9.88598Z" fill="#BC9412"/>
<path d="M42.7606 21.3846L40.8633 22.5303C40.8076 22.5579 40.7558 22.569 40.7081 22.5638C40.6607 22.5582 40.6145 22.5418 40.5696 22.5146C40.5243 22.4868 40.4901 22.4474 40.4671 22.3965C40.4441 22.3457 40.4421 22.2901 40.4609 22.2298L40.9658 20.0816L39.2958 18.6338C39.2488 18.5955 39.2178 18.5497 39.2028 18.4964C39.1878 18.4431 39.1911 18.392 39.2127 18.3432C39.2343 18.2945 39.2631 18.2544 39.299 18.223C39.3352 18.1927 39.384 18.1722 39.4453 18.1614L41.6489 17.969L42.5082 15.9348C42.5318 15.8773 42.566 15.8358 42.6106 15.8104C42.6552 15.785 42.7052 15.7722 42.7606 15.7722C42.816 15.7722 42.8662 15.785 42.9111 15.8104C42.9561 15.8358 42.9901 15.8773 43.013 15.9348L43.8723 17.969L46.0754 18.1614C46.137 18.1718 46.186 18.1925 46.2222 18.2236C46.2585 18.2542 46.2874 18.2941 46.309 18.3432C46.3302 18.392 46.3334 18.4431 46.3184 18.4964C46.3034 18.5497 46.2724 18.5955 46.2254 18.6338L44.5554 20.0816L45.0603 22.2298C45.0798 22.2894 45.0779 22.3448 45.0546 22.396C45.0312 22.4472 44.9969 22.4866 44.9516 22.5141C44.907 22.542 44.8608 22.5586 44.8131 22.5638C44.7657 22.569 44.7142 22.5579 44.6584 22.5303L42.7606 21.3846Z" fill="#BC9412"/>
<path d="M42.2379 36.0193L40.3406 37.165C40.2849 37.1925 40.2331 37.2036 40.1854 37.1984C40.138 37.1928 40.0918 37.1765 40.0469 37.1493C40.0016 37.1214 39.9674 37.082 39.9444 37.0312C39.9214 36.9803 39.9193 36.9247 39.9382 36.8644L40.4431 34.7163L38.7731 33.2685C38.7261 33.2302 38.6951 33.1843 38.6801 33.131C38.6651 33.0777 38.6684 33.0267 38.69 32.9779C38.7116 32.9291 38.7404 32.889 38.7763 32.8577C38.8125 32.8274 38.8613 32.8068 38.9226 32.796L41.1262 32.6037L41.9854 30.5694C42.0091 30.5119 42.0433 30.4705 42.0879 30.445C42.1325 30.4196 42.1825 30.4069 42.2379 30.4069C42.2933 30.4069 42.3435 30.4196 42.3884 30.445C42.4334 30.4705 42.4673 30.5119 42.4903 30.5694L43.3496 32.6037L45.5526 32.796C45.6143 32.8065 45.6633 32.8272 45.6995 32.8582C45.7358 32.8889 45.7647 32.9288 45.7863 32.9779C45.8075 33.0267 45.8107 33.0777 45.7957 33.131C45.7807 33.1843 45.7497 33.2302 45.7027 33.2685L44.0327 34.7163L44.5376 36.8644C44.5571 36.924 44.5552 36.9794 44.5319 37.0306C44.5085 37.0819 44.4742 37.1212 44.4289 37.1488C44.3843 37.1766 44.3381 37.1932 44.2904 37.1984C44.243 37.2036 44.1914 37.1925 44.1357 37.165L42.2379 36.0193Z" fill="#BC9412"/>
<path d="M24.9901 44.382L23.0928 45.5276C23.0371 45.5552 22.9853 45.5663 22.9376 45.5611C22.8902 45.5555 22.844 45.5391 22.7991 45.512C22.7538 45.4841 22.7196 45.4447 22.6966 45.3938C22.6736 45.343 22.6715 45.2874 22.6904 45.2271L23.1953 43.0789L21.5253 41.6312C21.4783 41.5928 21.4473 41.547 21.4323 41.4937C21.4173 41.4404 21.4206 41.3893 21.4422 41.3406C21.4638 41.2918 21.4926 41.2517 21.5285 41.2203C21.5647 41.19 21.6135 41.1695 21.6748 41.1587L23.8784 40.9663L24.7376 38.9321C24.7613 38.8746 24.7955 38.8332 24.8401 38.8077C24.8847 38.7823 24.9347 38.7696 24.9901 38.7696C25.0455 38.7696 25.0957 38.7823 25.1406 38.8077C25.1856 38.8332 25.2195 38.8746 25.2425 38.9321L26.1018 40.9663L28.3048 41.1587C28.3665 41.1691 28.4155 41.1899 28.4517 41.2209C28.488 41.2515 28.5169 41.2914 28.5385 41.3406C28.5597 41.3893 28.5629 41.4404 28.5479 41.4937C28.5329 41.547 28.5019 41.5928 28.4548 41.6312L26.7849 43.0789L27.2898 45.2271C27.3093 45.2867 27.3074 45.3421 27.2841 45.3933C27.2607 45.4445 27.2264 45.4839 27.1811 45.5114C27.1365 45.5393 27.0903 45.5559 27.0426 45.5611C26.9952 45.5663 26.9436 45.5552 26.8879 45.5276L24.9901 44.382Z" fill="#BC9412"/>
<path d="M7.74192 36.0193L5.84464 37.165C5.78889 37.1925 5.73715 37.2036 5.68941 37.1984C5.64202 37.1928 5.59585 37.1765 5.5509 37.1493C5.50561 37.1214 5.47146 37.082 5.44846 37.0312C5.42546 36.9803 5.42337 36.9247 5.44219 36.8644L5.94709 34.7163L4.27717 33.2685C4.23013 33.2302 4.19911 33.1843 4.18413 33.131C4.16915 33.0777 4.17246 33.0267 4.19406 32.9779C4.21566 32.9291 4.24441 32.889 4.2803 32.8577C4.31654 32.8274 4.36532 32.8068 4.42665 32.796L6.63021 32.6037L7.48948 30.5694C7.51317 30.5119 7.54732 30.4705 7.59192 30.445C7.63652 30.4196 7.68652 30.4069 7.74192 30.4069C7.79733 30.4069 7.8475 30.4196 7.89245 30.445C7.9374 30.4705 7.97137 30.5119 7.99437 30.5694L8.85363 32.6037L11.0567 32.796C11.1183 32.8065 11.1673 32.8272 11.2035 32.8582C11.2398 32.8889 11.2687 32.9288 11.2903 32.9779C11.3116 33.0267 11.3147 33.0777 11.2997 33.131C11.2847 33.1843 11.2537 33.2302 11.2067 33.2685L9.53676 34.7163L10.0417 36.8644C10.0612 36.924 10.0593 36.9794 10.0359 37.0306C10.0126 37.0819 9.97824 37.1212 9.93294 37.1488C9.88834 37.1766 9.84217 37.1932 9.79444 37.1984C9.74705 37.2036 9.69548 37.1925 9.63973 37.165L7.74192 36.0193Z" fill="#BC9412"/>
<path d="M32.8635 23.0256H32.1564V22.9892H24.2551V26.5008H29.2167C28.4928 28.545 26.5478 30.0125 24.2551 30.0125C21.3461 30.0125 18.9876 27.654 18.9876 24.745C18.9876 21.836 21.3461 19.4775 24.2551 19.4775C25.5979 19.4775 26.8195 19.984 27.7497 20.8115L30.2329 18.3283C28.6649 16.867 26.5676 15.9658 24.2551 15.9658C19.4068 15.9658 15.476 19.8967 15.476 24.745C15.476 29.5933 19.4068 33.5242 24.2551 33.5242C29.1034 33.5242 33.0343 29.5933 33.0343 24.745C33.0343 24.1563 32.9737 23.5817 32.8635 23.0256Z" fill="#FFC107"/>
<path d="M16.488 20.6587L19.3724 22.7741C20.1529 20.8418 22.0431 19.4775 24.255 19.4775C25.5977 19.4775 26.8194 19.984 27.7495 20.8115L30.2327 18.3283C28.6647 16.867 26.5674 15.9658 24.255 15.9658C20.8829 15.9658 17.9585 17.8696 16.488 20.6587Z" fill="#FF3D00"/>
<path d="M24.255 33.5242C26.5226 33.5242 28.5831 32.6563 30.141 31.2451L27.4238 28.9458C26.5129 29.639 25.3996 30.0137 24.255 30.0125C21.9715 30.0125 20.0326 28.5565 19.3022 26.5245L16.4393 28.7303C17.8923 31.5734 20.843 33.5242 24.255 33.5242Z" fill="#4CAF50"/>
<path d="M32.8633 23.0256H32.1561V22.9892H24.2549V26.5008H29.2164C28.8702 27.4737 28.2465 28.3239 27.4224 28.9463L27.4237 28.9454L30.1409 31.2447C29.9486 31.4194 33.034 29.1346 33.034 24.745C33.034 24.1564 32.9735 23.5818 32.8633 23.0256Z" fill="#1976D2"/>
</g>
<rect x="0.245" y="0.245" width="48.51" height="48.51" rx="24.255" stroke="#E7E7E7" stroke-width="0.49"/>
<defs>
<clipPath id="clip0_4005_541">
<rect width="49" height="49" rx="24.5" fill="white"/>
</clipPath>
</defs>
</svg>
