<svg width="35" height="35" viewBox="0 0 35 35" fill="none" xmlns="http://www.w3.org/2000/svg">
<path d="M17.4999 23.4822L12.2062 26.6789C12.0506 26.7557 11.9062 26.7868 11.773 26.7722C11.6408 26.7567 11.512 26.711 11.3866 26.6351C11.2602 26.5574 11.1649 26.4475 11.1008 26.3055C11.0366 26.1636 11.0308 26.0085 11.0833 25.8403L12.492 19.8466L7.83263 15.807C7.70138 15.7001 7.61485 15.5722 7.57304 15.4235C7.53124 15.2747 7.54047 15.1323 7.60075 14.9962C7.66103 14.8601 7.74124 14.7483 7.84138 14.6608C7.94249 14.5762 8.0786 14.5188 8.24971 14.4887L14.398 13.952L16.7955 8.27617C16.8617 8.11576 16.9569 8.00006 17.0814 7.92909C17.2058 7.85812 17.3453 7.82263 17.4999 7.82263C17.6545 7.82263 17.7945 7.85812 17.9199 7.92909C18.0453 8.00006 18.1401 8.11576 18.2043 8.27617L20.6018 13.952L26.7487 14.4887C26.9208 14.5178 27.0573 14.5757 27.1585 14.6622C27.2596 14.7478 27.3403 14.8591 27.4005 14.9962C27.4598 15.1323 27.4686 15.2747 27.4268 15.4235C27.385 15.5722 27.2985 15.7001 27.1672 15.807L22.5078 19.8466L23.9166 25.8403C23.971 26.0066 23.9657 26.1612 23.9005 26.3041C23.8354 26.447 23.7396 26.5569 23.6133 26.6337C23.4888 26.7115 23.36 26.7576 23.2268 26.7722C23.0946 26.7868 22.9507 26.7557 22.7951 26.6789L17.4999 23.4822Z" fill="#EEA43C"/>
</svg>
